<?xml version="1.0" standalone="no"?>
<svg version="1.0" xmlns="http://www.w3.org/2000/svg"
 width="200.000000pt" height="85.000000pt" viewBox="0 0 200.000000 85.000000"
 preserveAspectRatio="xMidYMid meet">

<g transform="translate(0.000000,85.000000) scale(0.100000,-0.100000)"
fill="#cda45e" stroke="none">
<path d="M97 750 c-31 -25 -41 -62 -27 -105 11 -33 32 -46 95 -60 77 -17 101
-73 48 -115 -49 -38 -133 1 -133 62 0 15 -4 28 -9 28 -5 0 -9 -25 -9 -55 0
-30 5 -55 9 -55 5 0 9 4 9 9 0 6 16 3 35 -5 52 -21 83 -18 116 15 23 24 29 38
29 75 0 55 -24 77 -105 95 -43 10 -59 18 -67 37 -15 33 17 78 59 82 34 4 83
-36 83 -68 0 -11 4 -20 8 -20 5 0 8 20 8 44 -1 33 -4 42 -13 34 -8 -7 -19 -5
-35 6 -31 22 -70 20 -101 -4z" />
<path d="M1037 753 c20 -4 21 -9 22 -144 2 -136 1 -140 -21 -149 -16 -6 12 -9
94 -9 l116 -1 4 50 c1 28 0 50 -4 50 -5 0 -8 -13 -8 -29 0 -39 -21 -54 -86
-59 l-54 -4 0 145 c0 143 0 146 23 150 12 2 -7 4 -43 4 -36 0 -55 -2 -43 -4z"/>
<path d="M733 667 c-8 -16 -20 -27 -33 -27 -11 0 -20 -4 -20 -10 0 -5 7 -10
15 -10 12 0 15 -15 15 -74 0 -47 5 -77 13 -83 25 -20 46 -22 64 -5 10 9 14 14
9 10 -6 -5 -18 -8 -28 -8 -16 0 -18 10 -18 80 0 79 0 80 25 80 14 0 25 4 25 9
0 4 -11 6 -24 4 -22 -4 -25 -1 -28 28 l-3 34 -12 -28z"/>
<path d="M893 635 c-18 -8 -34 -20 -34 -27 -1 -7 -2 -42 -3 -78 -1 -55 -4 -65
-18 -64 -10 1 -15 -2 -12 -7 7 -12 51 -11 59 1 5 8 11 7 21 -1 18 -15 71 -14
90 2 21 18 17 57 -8 73 -13 8 -40 18 -61 21 -35 7 -38 10 -35 39 3 28 6 31 38
31 30 0 35 -3 35 -24 0 -29 22 -40 31 -16 8 19 -20 50 -51 58 -11 4 -35 0 -52
-8z m52 -95 c22 -8 26 -15 23 -42 -6 -62 -78 -41 -78 23 0 32 11 36 55 19z"/>
<path d="M1534 640 c-53 -21 -81 -100 -53 -152 15 -29 72 -50 103 -39 26 10
60 51 49 60 -3 3 -8 0 -10 -7 -14 -38 -74 -57 -101 -30 -15 15 -16 112 -2 139
7 12 21 19 41 19 26 0 29 -3 24 -20 -7 -23 20 -39 36 -23 14 14 1 39 -27 52
-29 13 -32 13 -60 1z"/>
<path d="M1800 637 c-29 -14 -42 -67 -16 -67 21 0 30 18 16 35 -15 18 5 29 42
23 18 -2 24 -10 26 -35 3 -28 0 -33 -18 -33 -11 0 -36 -6 -55 -14 -38 -16 -56
-56 -35 -81 15 -18 81 -20 99 -2 11 10 14 10 18 0 6 -16 59 -17 69 -2 4 8 0 9
-15 4 -20 -6 -21 -3 -21 68 0 58 -4 77 -17 90 -26 23 -65 29 -93 14z m70 -120
c0 -39 -15 -57 -47 -57 -34 0 -43 47 -13 72 36 30 60 24 60 -15z" />
<path d="M305 620 c-20 -22 -14 -50 10 -50 11 0 15 8 13 28 -3 25 0 27 32 27
32 0 35 -3 38 -31 3 -29 0 -32 -35 -39 -58 -10 -85 -31 -81 -63 4 -38 48 -58
86 -40 20 10 33 11 48 3 11 -5 49 -8 85 -6 35 2 56 6 47 8 -15 4 -18 16 -18
69 0 72 22 108 63 102 20 -3 22 -9 25 -85 2 -71 1 -82 -15 -86 -10 -3 7 -5 37
-5 30 0 47 2 38 5 -15 4 -18 16 -18 77 0 82 -15 106 -65 106 -16 0 -37 -7 -47
-17 -14 -13 -18 -13 -18 -2 0 9 -12 14 -35 14 -19 0 -35 -3 -35 -7 0 -5 7 -8
15 -8 12 0 15 -15 15 -79 l0 -80 -27 2 c-28 2 -28 3 -28 76 0 60 -3 75 -19 87
-29 21 -89 18 -111 -6z m93 -108 c3 -26 -1 -34 -22 -43 -36 -17 -56 -5 -56 31
0 22 6 33 23 40 37 15 52 7 55 -28z"/>
<path d="M1250 628 c0 -4 7 -8 15 -8 12 0 15 -15 15 -73 0 -43 5 -78 12 -85
17 -17 68 -15 90 5 17 15 18 15 18 0 0 -13 9 -17 38 -16 20 1 29 3 20 6 -15 4
-18 17 -18 92 l0 88 -35 -1 c-33 -1 -52 -16 -20 -16 12 0 15 -13 15 -58 0 -67
-19 -102 -56 -102 -24 0 -24 1 -24 88 l0 88 -35 0 c-19 0 -35 -4 -35 -8z" />
<path d="M1640 630 c0 -5 5 -10 10 -10 6 0 10 5 10 10 0 6 -4 10 -10 10 -5 0
-10 -4 -10 -10z" />
<path d="M1684 632 c-7 -4 -11 -27 -9 -57 4 -71 -4 -113 -24 -118 -9 -3 11 -5
44 -5 45 -1 54 1 38 8 -21 9 -23 16 -23 95 0 83 -3 92 -26 77z" />
<path  d="M854 355 c-66 -35 -94 -43 -94 -27 0 4 5 13 10 18 8 8 7 14 -3 23
-24 19 -40 -10 -21 -37 23 -33 80 -30 135 8 24 16 47 30 52 30 16 0 5 -29 -17
-43 -13 -9 -38 -41 -56 -71 -17 -31 -39 -60 -48 -66 -9 -5 -12 -10 -7 -10 30
0 78 44 97 91 20 47 47 63 39 23 -2 -10 -6 -53 -10 -94 -7 -86 -19 -117 -33
-81 -9 25 -31 24 -36 -1 -3 -18 27 -32 50 -23 30 12 50 63 46 123 -4 70 13 80
29 18 6 -26 21 -61 32 -80 12 -18 21 -43 21 -55 0 -14 4 -20 11 -15 18 11 3
82 -26 124 -39 56 -27 71 21 29 21 -20 55 -46 74 -59 19 -13 40 -31 47 -40 20
-24 15 2 -7 38 -12 20 -37 40 -64 52 -24 10 -47 23 -50 28 -8 14 18 22 35 11
8 -5 40 -9 71 -9 61 0 108 -13 108 -30 0 -5 -3 -9 -7 -9 -33 5 -48 -23 -19
-34 18 -7 39 17 34 39 -7 36 -53 57 -123 56 -60 -1 -66 1 -60 16 5 9 10 29 13
45 5 34 11 34 57 -3 59 -47 145 -40 145 11 0 23 -19 34 -33 20 -8 -8 -8 -14 1
-23 7 -7 12 -16 12 -20 0 -16 -30 -7 -99 28 -83 44 -120 43 -113 -4 8 -58 -62
-85 -94 -37 -9 14 -13 32 -10 42 7 16 -8 33 -31 33 -6 0 -42 -16 -79 -35z" />
<path d="M766 231 c-9 -14 5 -42 18 -38 18 6 20 47 2 47 -8 0 -17 -4 -20 -9z" />
<path d="M1125 120 c-8 -13 3 -30 20 -30 20 0 30 21 14 31 -18 11 -26 11 -34
-1z" />
<path d="M993 84 c-8 -20 9 -36 30 -28 13 5 14 10 6 25 -12 23 -28 25 -36 3z" />
</g>
</svg>
